<svg width="40" height="40" viewBox="0 0 40 40" fill="none" xmlns="http://www.w3.org/2000/svg">
<circle cx="20" cy="20" r="20" fill="#EBEDFE"/>
<path d="M25 22V28M22 25H28M14 18H16C17.1046 18 18 17.1046 18 16V14C18 12.8954 17.1046 12 16 12H14C12.8954 12 12 12.8954 12 14V16C12 17.1046 12.8954 18 14 18ZM24 18H26C27.1046 18 28 17.1046 28 16V14C28 12.8954 27.1046 12 26 12H24C22.8954 12 22 12.8954 22 14V16C22 17.1046 22.8954 18 24 18ZM14 28H16C17.1046 28 18 27.1046 18 26V24C18 22.8954 17.1046 22 16 22H14C12.8954 22 12 22.8954 12 24V26C12 27.1046 12.8954 28 14 28Z" stroke="#4C3DFF" stroke-width="2" stroke-linecap="round" stroke-linejoin="round"/>
</svg>
